<svg width="164" height="34" fill="none" xmlns="http://www.w3.org/2000/svg"><path d="M7.766 0a7.764 7.764 0 1 1 0 15.528A7.764 7.764 0 0 1 7.766 0Zm7.761 26.237a7.763 7.763 0 1 1-7.763-7.763A10.71 10.71 0 0 0 18.473 7.765a7.762 7.762 0 1 1 7.764 7.763 10.71 10.71 0 0 0-10.708 10.709h-.002ZM26.237 34a7.764 7.764 0 1 1 0-15.528 7.764 7.764 0 0 1 0 15.528Zm0-5.423a2.34 2.34 0 1 0 0-4.68 2.34 2.34 0 0 0 0 4.68Zm-18.471 0a2.34 2.34 0 1 0 0-4.68 2.34 2.34 0 0 0 0 4.68Zm18.47-18.474a2.34 2.34 0 1 0 0-4.68 2.34 2.34 0 0 0 0 4.68Zm-18.47 0a2.34 2.34 0 1 0 0-4.68 2.34 2.34 0 0 0 0 4.68ZM47.588 16.354h7.106v3.366h-7.106v-3.366ZM47.896 25H43.54V9.6h12.078v3.366h-7.722V25Zm14.245 0V13.054h-4.73V9.6h13.794v3.454h-4.708V25H62.14Zm19.289 0V9.6h7.04c1.408 0 2.618.227 3.63.682 1.026.455 1.819 1.115 2.376 1.98.557.85.836 1.863.836 3.036 0 1.159-.279 2.163-.836 3.014-.558.85-1.35 1.51-2.376 1.98-1.012.455-2.222.682-3.63.682h-4.62l1.936-1.892V25H81.43Zm4.356-5.456-1.936-2.002h4.356c.91 0 1.584-.198 2.024-.594.454-.396.682-.946.682-1.65 0-.719-.228-1.276-.682-1.672-.44-.396-1.115-.594-2.024-.594H83.85l1.936-2.002v8.514ZM98.536 25V9.6h4.356v11.946h7.348V25H98.536Zm12.83 0 6.798-15.4h4.29l6.82 15.4h-4.532l-5.324-13.266h1.716L115.81 25h-4.444Zm3.718-2.992 1.122-3.212h7.524l1.122 3.212h-9.768ZM131.609 25V9.6h3.586l8.492 10.252h-1.694V9.6h4.268V25h-3.586l-8.492-10.252h1.694V25h-4.268Zm22.828-9.438h7.15v3.256h-7.15v-3.256Zm.308 6.072h8.052V25h-12.364V9.6h12.078v3.366h-7.766v8.668Z" fill="#fff"/></svg>