<svg width="41" height="40" fill="none" xmlns="http://www.w3.org/2000/svg"><g clip-path="url(#a)" fill="#030522"><path d="M32.574 34.152a.786.786 0 0 1-.766-.63.78.78 0 0 1 .613-.918.77.77 0 0 1 .586.117.76.76 0 0 1 .288.35.784.784 0 0 1-.169.851.733.733 0 0 1-.254.17.774.774 0 0 1-.298.06ZM21.678 24.995h-2.17a.78.78 0 0 1-.765-.935l.73-3.641h-3.33l-1.085.904a.78.78 0 0 1-.5.18h-2.17a.781.781 0 0 1-.725-1.07l.969-2.423-.969-2.421a.782.782 0 0 1 .726-1.072h2.17a.78.78 0 0 1 .5.181l1.084.904h3.33l-.73-3.641a.781.781 0 0 1 .766-.935h2.169c.271 0 .523.14.665.371l2.595 4.205h2.707a2.411 2.411 0 0 1 2.408 2.408 2.411 2.411 0 0 1-2.409 2.409h-2.706l-2.595 4.205a.781.781 0 0 1-.665.371Zm-1.216-1.563h.78l2.595-4.204a.781.781 0 0 1 .665-.372h3.143a.847.847 0 0 0 0-1.692h-3.143a.781.781 0 0 1-.665-.37l-2.595-4.206h-.78l.73 3.641a.782.782 0 0 1-.765.936H15.86a.782.782 0 0 1-.5-.181l-1.085-.904h-.732l.656 1.64a.782.782 0 0 1 0 .58l-.656 1.641h.732l1.085-.903a.78.78 0 0 1 .5-.182h4.567a.782.782 0 0 1 .765.935l-.73 3.642ZM29.128 33.722H12.529a.781.781 0 0 1-.781-.78v-4.805c0-.432.35-.782.781-.782h16.599c.431 0 .781.35.781.782v4.804c0 .432-.35.781-.781.781ZM13.31 32.16h15.037v-3.242H13.31v3.242Z"/><path d="M36.483 1.563h-3.127V.781A.781.781 0 0 0 32.575 0H7.394a3.065 3.065 0 0 0-3.062 3.062v33.876A3.065 3.065 0 0 0 7.393 40h29.09c.432 0 .782-.35.782-.781V2.345a.781.781 0 0 0-.782-.782Zm-4.69 0v9.403l-2.201-1.038a.781.781 0 0 0-.666 0l-2.208 1.04V1.562h5.076Zm3.91 36.874H9.864V6.744a.781.781 0 1 0-1.562 0v31.694h-.91c-.826 0-1.499-.672-1.499-1.499V3.062c0-.827.673-1.5 1.5-1.5h17.762v10.636a.782.782 0 0 0 1.114.707l2.988-1.407 2.536 1.196V29.58a.781.781 0 0 0 1.562 0V3.126h2.346v35.312Z"/></g><defs><clipPath id="a"><path fill="#fff" d="M.816 0h40v40h-40z"/></clipPath></defs></svg>