<svg width="41" height="40" fill="none" xmlns="http://www.w3.org/2000/svg"><g clip-path="url(#a)" fill="#030522"><path d="M38.278 20.518a1.172 1.172 0 0 1 0-1.036l1.492-3.052c.83-1.7.173-3.724-1.498-4.611l-3-1.592a1.172 1.172 0 0 1-.61-.838l-.587-3.346a3.473 3.473 0 0 0-3.922-2.85l-3.364.475a1.172 1.172 0 0 1-.985-.32L23.362.986a3.472 3.472 0 0 0-4.848 0l-2.442 2.362a1.173 1.173 0 0 1-.985.32l-3.364-.475a3.472 3.472 0 0 0-3.922 2.85l-.587 3.346c-.063.36-.285.666-.609.838l-3 1.592a3.473 3.473 0 0 0-1.499 4.611l1.492 3.052c.16.33.16.707 0 1.036L2.106 23.57a3.472 3.472 0 0 0 1.498 4.611l3.001 1.593c.324.171.546.477.61.838l.586 3.346a3.47 3.47 0 0 0 3.922 2.85l3.364-.476c.363-.052.722.065.985.32l2.442 2.362a3.475 3.475 0 0 0 4.848 0l2.442-2.362c.263-.255.622-.371.985-.32l3.364.476a3.472 3.472 0 0 0 3.922-2.85l.587-3.346c.063-.361.285-.667.61-.838l3-1.593a3.472 3.472 0 0 0 1.498-4.61l-1.492-3.053Zm-1.087 5.625-3.001 1.592a3.465 3.465 0 0 0-1.8 2.478l-.587 3.346a1.175 1.175 0 0 1-1.327.964l-3.364-.476a3.464 3.464 0 0 0-2.912.947l-2.442 2.362c-.46.444-1.18.444-1.64 0l-2.442-2.362a3.461 3.461 0 0 0-2.912-.947l-3.364.476a1.175 1.175 0 0 1-1.327-.964l-.587-3.346a3.464 3.464 0 0 0-1.8-2.478l-3-1.592a1.175 1.175 0 0 1-.508-1.56l1.492-3.052a3.465 3.465 0 0 0 0-3.062l-1.492-3.052a1.175 1.175 0 0 1 .507-1.56l3.001-1.592a3.465 3.465 0 0 0 1.8-2.478l.587-3.346c.11-.63.693-1.053 1.327-.964l3.364.476a3.465 3.465 0 0 0 2.912-.946l2.442-2.362a1.175 1.175 0 0 1 1.64 0L24.2 5.007a3.464 3.464 0 0 0 2.912.946l3.364-.476a1.175 1.175 0 0 1 1.327.964l.587 3.346a3.464 3.464 0 0 0 1.8 2.478l3 1.592c.566.3.788.985.507 1.56l-1.492 3.052a3.465 3.465 0 0 0 0 3.062l1.492 3.052c.281.575.059 1.26-.507 1.56Z"/><path d="M29.368 11.571c-.45-.45-1.181-.45-1.631 0L12.51 26.797a1.154 1.154 0 0 0 1.631 1.631l15.226-15.225c.45-.45.45-1.181 0-1.632ZM16.325 9.618a4.234 4.234 0 0 0-4.23 4.23 4.234 4.234 0 0 0 4.23 4.23 4.234 4.234 0 0 0 4.23-4.23 4.234 4.234 0 0 0-4.23-4.23Zm0 6.152a1.925 1.925 0 0 1-1.923-1.922c0-1.06.863-1.923 1.923-1.923s1.922.863 1.922 1.923-.862 1.922-1.922 1.922ZM25.553 21.922a4.234 4.234 0 0 0-4.23 4.23 4.234 4.234 0 0 0 4.23 4.23 4.234 4.234 0 0 0 4.23-4.23 4.234 4.234 0 0 0-4.23-4.23Zm0 6.152a1.925 1.925 0 0 1-1.922-1.922c0-1.06.862-1.922 1.922-1.922s1.923.862 1.923 1.922-.863 1.922-1.923 1.922Z"/></g><defs><clipPath id="a"><path fill="#fff" d="M.939 0h40v40h-40z"/></clipPath></defs></svg>