<svg width="30" height="40" fill="none" xmlns="http://www.w3.org/2000/svg"><path d="M28.713 29.267a1 1 0 0 0 1-1v-8.72a1.936 1.936 0 0 0-1.933-1.934h-2.252V10.8C25.522 5.021 20.84.34 15.06.333 9.282.34 4.6 5.021 4.594 10.8v6.807H2.342A1.937 1.937 0 0 0 .41 19.54v15.252a4.88 4.88 0 0 0 4.875 4.875h19.554a4.88 4.88 0 0 0 4.875-4.875 1 1 0 0 0-2 0 2.88 2.88 0 0 1-2.875 2.875H5.284a2.88 2.88 0 0 1-2.875-2.875l-.067-15.185h3.252a1 1 0 0 0 1-1V10.8C6.984-.4 23.138-.403 23.528 10.8v6.807H12.394a1 1 0 0 0 0 2c2.556-.014 12.99-.05 15.319-.067v8.727a1 1 0 0 0 1 1Z" fill="#030522"/><path d="M12.856 28.636c.05 2.899 4.362 2.899 4.41 0-.048-2.899-4.36-2.899-4.41 0Z" fill="#030522"/></svg>