<svg width="41" height="40" fill="none" xmlns="http://www.w3.org/2000/svg"><g clip-path="url(#a)"><path d="M37.968 16.653c-.799-.493-1.688-.594-2.472-.517v-.823C35.496 6.89 28.604 0 20.184 0 11.762 0 4.87 6.892 4.87 15.313v.823c-.784-.077-1.673.024-2.471.517-1.47.909-2.216 2.824-2.216 5.69 0 2.873.747 4.797 2.22 5.722.731.459 1.586.618 2.467.542v.846c0 .647.525 1.172 1.172 1.172h4.687c.648 0 1.172-.525 1.172-1.172v-14.14c0-.648-.524-1.172-1.171-1.172H7.267c.595-6.604 6.16-11.797 12.916-11.797s12.32 5.193 12.915 11.797h-3.462c-.647 0-1.172.524-1.172 1.171v14.141c0 .647.525 1.172 1.172 1.172h3.515v1.172a3.52 3.52 0 0 1-3.515 3.515H25.84a3.521 3.521 0 0 0-3.314-2.343h-2.343a3.52 3.52 0 0 0-3.516 3.515A3.52 3.52 0 0 0 20.184 40h2.343c1.528 0 2.83-.98 3.314-2.344h3.796c3.23 0 5.86-2.628 5.86-5.86v-3.189c.88.076 1.735-.083 2.467-.542 1.473-.925 2.22-2.85 2.22-5.721 0-2.867-.746-4.782-2.216-5.69ZM4.87 26.25c-.374.065-.841.07-1.222-.17-.723-.454-1.122-1.78-1.122-3.735 0-1.937.39-3.248 1.097-3.692.382-.24.864-.224 1.247-.148v7.744Zm4.688-9.765v11.797H7.215V16.484h2.344Zm12.968 21.172h-2.343a1.173 1.173 0 0 1-1.172-1.172c0-.646.526-1.172 1.172-1.172h2.343c.647 0 1.172.526 1.172 1.172 0 .646-.525 1.172-1.172 1.172Zm10.625-9.375H30.81V16.484h2.343v11.797Zm3.575-2.207c-.38.242-.852.237-1.23.171v-7.74c.382-.077.864-.094 1.246.147.707.444 1.097 1.755 1.097 3.692 0 1.947-.396 3.272-1.114 3.73Z" fill="#030522"/></g><defs><clipPath id="a"><path fill="#fff" d="M.184 0h40v40h-40z"/></clipPath></defs></svg>